/* XPM */
static char *_195eb6c21ff4efce7dda262494cf2ec[] = {
/* columns rows colors chars-per-pixel */
"64 64 230 2 ",
"   c None",
".  c #181D1B",
"X  c #340E14",
"o  c #353B0B",
"O  c #34340E",
"+  c #2A2F07",
"@  c #4C0008",
"#  c #470108",
"$  c #580900",
"%  c #5B1400",
"&  c #6B0800",
"*  c #680500",
"=  c #7A0C00",
"-  c #691500",
";  c #711300",
":  c #5E3400",
">  c #4B2E08",
",  c #662200",
"<  c #6A3801",
"1  c #7C3200",
"2  c #3C430E",
"3  c #3F4007",
"4  c #3B4311",
"5  c #3A4912",
"6  c #44480C",
"7  c #544E0F",
"8  c #49510F",
"9  c #535D0D",
"0  c #4C4B10",
"q  c #474C14",
"w  c #4B5312",
"e  c #4B5613",
"r  c #565414",
"t  c #6A4803",
"y  c #7E4200",
"u  c #72580E",
"i  c #576219",
"p  c #61611D",
"a  c #5E5825",
"s  c #635B34",
"d  c #745720",
"f  c #646428",
"g  c #767829",
"h  c #840B00",
"j  c #8A0C00",
"k  c #870400",
"l  c #8D1300",
"z  c #981700",
"x  c #AC0C00",
"c  c #A11300",
"v  c #A61A00",
"b  c #B21200",
"n  c #B91400",
"m  c #BB1C00",
"M  c #B30600",
"N  c #8E2700",
"B  c #AF2100",
"V  c #A12800",
"C  c #B22D00",
"Z  c #BD2900",
"A  c #B72603",
"S  c #B33E00",
"D  c #B33A09",
"F  c #D70C00",
"G  c #CA1400",
"H  c #C31B00",
"J  c #DD1700",
"K  c #D41600",
"L  c #C50C00",
"P  c #E21F00",
"I  c #FA1A01",
"U  c #F70400",
"Y  c #C42300",
"T  c #CC2A00",
"R  c #C82800",
"E  c #DC2C00",
"W  c #D42700",
"Q  c #C83600",
"!  c #D83502",
"~  c #E42D00",
"^  c #E92800",
"/  c #FF2B05",
"(  c #FF2804",
")  c #E53C00",
"_  c #EF3908",
"`  c #F33C00",
"'  c #FC3D02",
"]  c #FF3B0C",
"[  c #FF3013",
"{  c #FF2516",
"}  c #FF3F34",
"|  c #834901",
" . c #805A00",
".. c #975D00",
"X. c #AA4800",
"o. c #B94900",
"O. c #AE5A00",
"+. c #B85E00",
"@. c #8C6700",
"#. c #906500",
"$. c #8F7100",
"%. c #9C7500",
"&. c #9B7905",
"*. c #997A14",
"=. c #B86501",
"-. c #A57903",
";. c #B57A00",
":. c #CD4500",
">. c #C64A02",
",. c #D74802",
"<. c #C45800",
"1. c #D75602",
"2. c #E24D00",
"3. c #EB4C00",
"4. c #E54300",
"5. c #FD4601",
"6. c #FF4D04",
"7. c #F24900",
"8. c #E85701",
"9. c #FF5304",
"0. c #F35C00",
"q. c #FF5B0C",
"w. c #FD5906",
"e. c #FF4815",
"r. c #FF5C14",
"t. c #FF5210",
"y. c #D76C00",
"u. c #DD6800",
"i. c #C87504",
"p. c #D67500",
"a. c #DF7500",
"s. c #CD6500",
"d. c #FE6B09",
"f. c #E67802",
"g. c #FB7301",
"h. c #FF7C0A",
"j. c #F97700",
"k. c #FF6A1B",
"l. c #FF6717",
"z. c #FF791C",
"x. c #FF7913",
"c. c #E26300",
"v. c #FF4728",
"b. c #FF5627",
"n. c #F65631",
"m. c #D7692F",
"M. c #FF642A",
"N. c #FF7523",
"B. c #FF7B24",
"V. c #FF7D2D",
"C. c #FF6934",
"Z. c #FF7637",
"A. c #A64B59",
"S. c #FF7154",
"D. c #9B8106",
"F. c #A68000",
"G. c #B88700",
"H. c #BA9600",
"J. c #DA8601",
"K. c #C99700",
"L. c #D29D00",
"P. c #C28900",
"I. c #E88600",
"U. c #FF8C01",
"Y. c #FF840A",
"T. c #FF8B0E",
"R. c #F98503",
"E. c #ED9B00",
"W. c #EA9400",
"Q. c #FD9303",
"!. c #FF9D09",
"~. c #FF9807",
"^. c #FF8912",
"/. c #FF841C",
"(. c #FF8C1B",
"). c #FF9415",
"_. c #FF9914",
"`. c #FF9C1A",
"'. c #FF9018",
"]. c #CAA100",
"[. c #D7AA03",
"{. c #DEB803",
"}. c #FFAB0C",
"|. c #F9AA05",
" X c #EDBC00",
".X c #E9B504",
"XX c #FFBA0B",
"oX c #FDB506",
"OX c #FFA214",
"+X c #FFA31D",
"@X c #FFA91A",
"#X c #FFAB13",
"$X c #FFB213",
"%X c #FFBD16",
"&X c #FFB41B",
"*X c #FFBC1C",
"=X c #FF8423",
"-X c #FF8C22",
";X c #FF8429",
":X c #FF8F2B",
">X c #FF9323",
",X c #FF9C22",
"<X c #FF972D",
"1X c #FF8D37",
"2X c #FF9435",
"3X c #FFA423",
"4X c #FFA82A",
"5X c #FEB324",
"6X c #FFB72E",
"7X c #FEBB2A",
"8X c #FFA336",
"9X c #EBCF00",
"0X c #FFC503",
"qX c #FFC20A",
"wX c #FAC900",
"eX c #FFD70F",
"rX c #FFC415",
"tX c #FFCB13",
"yX c #FFC71B",
"uX c #FFD213",
"iX c #FFD715",
"pX c #FFCB24",
"aX c #FFD438",
"sX c #FFE32D",
"dX c #FF8340",
"fX c #FF8F5E",
"gX c #FFAD45",
"hX c #FFA558",
"jX c #FFC246",
"kX c #FFE353",
/* pixels */
"                                                                                                                                ",
"                                                                                                                                ",
"                                                                                                                                ",
"                                                                                                                                ",
"                                                                                                                                ",
"                                                                                                                                ",
"                                                                                                                                ",
"                                                                                                                                ",
"                                                                                                                                ",
"                                                                                                                                ",
"                                                                                                                                ",
"                                                                                                                                ",
"                                                      =.                                                                        ",
"                                                  o.  !.      =.B.    z.1.                                                      ",
"                                                  Y.=.Q.0.  | /.Z.  Q.l.d.                                                      ",
"                                                G.Y.d.`.7.m.R.w.w._.(.7.2.                                                      ",
"                                                P.`.! (.` 8.T.4.) T.9.` ^.}.`.3X                                                ",
"                                                  _.T 0.5.! 8.R H g.~ ) ^.=XN.}.                                                ",
"                                        `.2X3XE.J.'.4.n 3.C ' x c 2.Y T E ^ >X$XI.!.<X>X                                        ",
"                                        L.+Xk.B.`.`.d.k v N P * ; R R G b E -X/.;XfXV.                                          ",
"                                  ;.gX1X>.qX@Xt.] 6.6.A $ l m - $ c b * j ,.7.( n.                                              ",
"                                    wX+XT C oX@X5.M j b = , N .., - - . j C m _     O.;.                                        ",
"                                      wX}.C z p.T.6.h < p.-.t u > < | , & ; Q A ! k.B.-X`.4XI.                                  ",
"                                  :.,.j.`./.q.' 4.:.A y.0X@.H.].G.#.t < , c T 4.7.d.(.:X4XW.                                    ",
"                                  8.l.' ( ( I P c & ..J.H.{.E.y.p..X-.y 1 & v R ~ 5.q.z.<X                                      ",
"                                      ^.Y.h.h.j.7.W g.0XH.tXD 2.,.a..X#.F.O # M J ` d.(.i.                                      ",
"                                        XX%X,Xk.^ h =.aX{.XX>.u.8.s.L.$.i.B J 5.x.^.!.;.                                        ",
"                                      -.&X;XM.[ F h X.&X].aXf.p.a.|. X&.y ; V >.1.<.                                            ",
"                                      6X,X-X(.>X-Xw.A R..X].sXiXeXeX-.qX<.* @ k G g.|.                                          ",
"                                      I.oXqXXXE.O.R G E.kX[.H.{.[.H.eXtXN E 9.q.b.Z.3X0X                                        ",
"                                    !.Q Z Q :.,.w.v.h < g.4XpXXXaX$Xc.y X b 0.Q.OX8XhXjXL.                                      ",
"                                  4X7X&X&X&X}.W.i.{ k J ~ Q R.! -.B K G k L r.U.1.o.    U.                                      ",
"                                                A.} e.r.2.T z ( @ b 9.h.r.I e._.R.H S                                           ",
"                                                S.-X_.l.>XK X.k.F / Y.s.$Xz.e./.&XN.Z.>.                                        ",
"                                            _ dX4X#X_.@X2XU T 3Xv.b.OXv f.yX,X=XrXrX4X2X                                        ",
"                                                  -.%XrXC.v.~ OX1XN.4X( m y.eX*X5XH.                                            ",
"                                                i &.yX3XM.=XU.<.5X(.5XC.d.>.  9XgX                                              ",
"                                                g t yX<X=XrX Xr .X@XyX;X(.iX                                                    ",
"                                                g q 6X<XrXuXr p D.pX[.@X(.uX                                                    ",
"                                                s q gXyX X  a r r     |.&XrX                                                    ",
"                                                  s         f 0         D.J.                                                    ",
"                                                            7 o       >                                                         ",
"                                                            r 6                                                                 ",
"                                                            0 6                                                                 ",
"                                                            e 4                                                                 ",
"                                                            w o                                                                 ",
"                                                            w o                                                                 ",
"                                                            w o                                                                 ",
"                                                            8 4                                                                 ",
"                                                            8 4                                                                 ",
"                                                            8 2                                                                 ",
"                                                            8 2                                                                 ",
"                                                            8 2                                                                 ",
"                                                            2 5                                                                 ",
"                                                            o q                                                                 ",
"                                                            + e                                                                 ",
"                                                              e                                                                 ",
"                                                              i                                                                 ",
"                                                              i                                                                 ",
"                                                              9 f                                                               ",
"                                                              9 p                                                               ",
"                                                              9 0 d                                                             ",
"                                                              8 O                                                               ",
"                                                              2 5                                                               "
};
