/* XPM */
static char *_abace4ff1e24e85b08f83066a68ec69[] = {
/* columns rows colors chars-per-pixel */
"64 64 107 2 ",
"   c #87754F",
".  c #8B774F",
"X  c #8C7B56",
"o  c #907E5B",
"O  c #948057",
"+  c #96825A",
"@  c #9A865D",
"#  c #9D895D",
"$  c #A28C5D",
"%  c #A7915F",
"&  c #978765",
"*  c #998661",
"=  c #9C8A63",
"-  c #9B8C6D",
";  c #A18E64",
":  c #A08E69",
">  c #A59165",
",  c #AA9464",
"<  c #AF9867",
"1  c #A4926B",
"2  c #AA966C",
"3  c #AD996C",
"4  c #B09761",
"5  c #B39C66",
"6  c #B29D6E",
"7  c #A59572",
"8  c #A99772",
"9  c #AD9A73",
"0  c #AE9D7B",
"q  c #B19E73",
"w  c #B29F7B",
"e  c #B6A06F",
"r  c #B9A26F",
"t  c #AFA07F",
"y  c #B5A175",
"u  c #BAA576",
"i  c #B5A37B",
"p  c #B9A67B",
"a  c #BDA97C",
"s  c #C1AD7D",
"d  c #AE9F81",
"f  c #AFA081",
"g  c #ACA089",
"h  c #B5A583",
"j  c #B9A783",
"k  c #BCAA84",
"l  c #B3A58B",
"z  c #B7A98B",
"x  c #BCAC8B",
"c  c #BFB08E",
"v  c #BDAF92",
"b  c #BFB092",
"n  c #BFB29B",
"m  c #C1AE83",
"M  c #C0AF89",
"N  c #C5B185",
"B  c #C9B485",
"V  c #CFB987",
"C  c #C4B28C",
"Z  c #C9B68C",
"A  c #CDB98D",
"S  c #D1BD8F",
"D  c #C4B493",
"F  c #C8B792",
"G  c #C7B897",
"H  c #CCBB94",
"J  c #C4B69A",
"K  c #C7B99B",
"L  c #CCBC9C",
"P  c #D1BF95",
"I  c #D0BF9A",
"U  c #C0B6A2",
"Y  c #C5BAA3",
"T  c #CCBEA2",
"R  c #C9BEA9",
"E  c #CFC09E",
"W  c #D3C196",
"Q  c #D8C496",
"!  c #D3C29C",
"~  c #D8C69B",
"^  c #CFC1A3",
"/  c #CEC3AB",
"(  c #D3C4A4",
")  c #D8C7A0",
"_  c #D7C8A6",
"`  c #D9C9A5",
"'  c #D3C6AA",
"]  c #D6C9AC",
"[  c #D9CBAC",
"{  c #DED0AF",
"}  c #D1C7B1",
"|  c #D6CAB2",
" . c #DACDB3",
".. c #D6CDB9",
"X. c #D9CFB9",
"o. c #DDD1B5",
"O. c #DCD2BB",
"+. c #E0D3B4",
"@. c #E1D5BB",
"#. c #E2D8BF",
"$. c #DDD5C2",
"%. c #DFD8C5",
"&. c #E1D7C2",
"*. c #E2D9C4",
"=. c #E8DEC5",
"-. c #E4DDCB",
";. c #E9E1CF",
/* pixels */
"s Q P W S Z W Z 1 k W H F Z B Z E ~ ~ W A N B W E W B W W A W W W B W B A W W B = z G A Z B N Z B V s r p a B s 5 q k C S B B p ",
"' o.[ o.@.@. .( C G _ +.+.{ { {  .o.X. .] _ ' [ {  . .{ { { [ [ `  .' ~ ` ' ' ( i L o.] [ ( _ L [ ` E W T ( ] ( Q ! ~ ( ` ` ( ( ",
"]  .] [  .O.O._ k G ^ ( [ o.o.o.X.[  . .] ( ^ ' _  . .] ] ] ] ] ] [ | ( ( ' ' ( h c ' _ { o.o.^ ( _ [ _ ( L ( ( ( _ ( L I I ` ( ",
" .o. .o.O.O. ._ k F ( ' ^  .o. .[ E E E E ^ E E ] ] [ _ _ ] { [ |  . . .' (  ._ i D ^ ' o.o.o._ ^ ( ] ( ` _ ( ! ( _ _ ` ( ( [ ( ",
"'  . .O.|  . ._ k H E ( '  .o. .' ] ' ( ! _ _ ^ '  ._ ' _ ] ]  . . .]  .] ] o.[ a E ^ | O.o.o._ _  .] _ _ E ( I L ( _ ( ( ]  .' ",
"| |  .] '  .o.( k G ' ' ' ^ / ^ ] ' ` ' _ ] o.' E ] _ ( _ ( ^ ] [  . .o.o.o.o.~ k ( ] ] +.O.[ ^ ( ' _ _ _ ' L _ ` ' [  .] ] [  .",
"@.@.o.O.| | [ ! a E { ' ' ' _ _ ' ' { _ ] ' { ` E | ( _ E E E _ _ ]  .o. .o. .E y H | ' | o.{ o.[ ^ ] ( ( _ L ( ( [  .X.O.X. .O.",
"o. .o.o.] ^ ( H u b ] ( ` [ ] _ [ L ' ' [ o.] ] E _ ( E ( ( ` ` ' |  .X.| ] { ~ u L | | }  .o.o.] ] ] Y ( ' ] O. .X.o.O.O.O. . .",
"O.o.o.[  .Y  .( a c ' E E ` ` _ [ ( ( _ [ ' ( } ( ( ] _ ( ( ( T ( ' ] ] / ' ' W u E } X.X.' ' | |  .+.' Y L ^ o. . .] ' } X.O.X.",
"( ( ^ L H D L G p k Z c k ! ~ ! L E L L G L G D x D G H F F Z F G G H E W E W Z 3 W E ^ ^ G ! _ T J  . .F h i h J L L G v x x ( ",
"2 2 1 9 y i p i e e y y > 9 < , y 9 2 2 y y p p q y i i q y p p i 9 2 i p i a u 3 y p p c t = u p 1 X = = ; 2 , > 5 j p 6 q 9 = ",
"( F y ! ~ ` ` ~ ( Q ~ W H A B Z ( W 8 ! @.{ ` ~ ~ ` [ [ ` ` _ ' _ W 6 E ~ ! ~ ~ ] ( { { ` E W E [ D 8 ( o.o.` [ ` ! [  .` ` ( ! ",
"o.L y E _ _ ( ( ' ^ ( ( G B Z E [ Q 9 ' %.*.-.-.*.-.-.-.%.%.%.$.O._ i E O.O.O.o.o.O.X. .' ( ( _ _ G h } } ' } | O.@. .O.&.@.@.O.",
"o.E p ! [ [ _ ( ( ^ L ] _ E L ! ( H 2 ] $.$.$.%.*.$.$.*.$.$.%.-.*.[ i E | {  .] [ O.] ' ' ` ( E _ L D ..O... . . .@. .O. ...O.@.",
"O.^ t ( _ [ [ [ _ ] ^ _ | ( ! _ ( W = O.O.$.O.} O.$.$.O.$.$.$.%.*.` i E  . . .| o.] ' / ( ^ E ' ] D J O.O.$. .|  . . . .| } |  .",
"O.K 2 L ( _ _ ' ]  ._ ^ ( _ _ ( _ L 1 ..$.O.&.X...$.$...} } $.$.%.[ t ^  ._ ]  .o. .' ' ^ E E E ^ D J O.%.$.X.]  . . .|  .X.| } ",
"/ K i G ( ( ( [ [  .[ _ ( T T ( [ H 8 } $.$.X.......} ..$.$.%.$.$.O.0 K ]  .O.| X.[ ' | | ' ] ]  .D t O.$.$.} | o. .o.O. .O.$.| ",
"O.^ h D ! E ( ` ( ( [ _ ( I T ( ( H q } $.$.O.O.O.%.-.-.-.%.%.$.$.O.f ^ '  .|  .X.[ ' |  .| ] ]  .G f X.$.O.} ] [ | o.O. .} O.$.",
"O.L p D L ( _ ( I ! ( [ _ ( ( ' ( I w } O.$.O.%.$.X.O.%.%.%.%.%.$.] h | T ' ' |  .' / | ] | ] ] | G f ..$.O...] | o.o.| o.|  .%.",
" .! p D E ^ L ! I P ( [ ( L T L L H 9 / X.$.O.....O.X.O.$.%.$... .[ h / [  .] '  . .| } ' | ] ] ] G f O.%.$.O.[ | | | ] | | }  .",
"M k 1 9 k x C H F m m x a k m k h y ; l n b z J ^ Y U n b D L F L C 8 l b G L z z x C M J v h F G h - Y / U p z k h x b D C b k ",
"B B u y k & & x v p j p s s m m m s m m m b k z b z x b c a k k k k c G b 8 8 k a C B F H C k k x k u N c F u u s B B Z Z L H Z ",
"o. .` ( T h x ( T I I [ ( ( ! ' ( ( ( _  .[ ] | |  .[ o.o.[ ~ _ ` _ [ [ _ x h  . . .( | O./ (  .] ] _ [ _ { ( ' [ ] _ _ ' o.o.{ ",
"o.O.@.O._ i i ^ I T  .[ ' _ ( ^ _  .' ( ] } | ' ' | o.[ #.=.@.O.O.O.@.@.[ m 0 | &.O.O.&.@. . .|  .} ] O.O.o.X.o.O.o.o.o.|  .O.^ ",
"' O.O.O. .m p ( ' _  . .[ [ ( ( ] o.' ( ] '  .O.O.O. . .O.&.*.#.=.@.&.-.o.G x ..%.-.&.O.[ ] O. .| o. . . .o.o. .o.| | o. .o.X.| ",
"/ ' O.@.O.C p ( [ ( ( ( ( ( ( ' ' _ ' ^ ] ] } $.@.@.O.| (  .@.@.O.o.O.*.#.L J } $.O. .| | |  .] ] | o.o.O...| | | [  . .| [ o.[ ",
"_ L ]  . .C k ' +.[ ( ( ` ( ` ( ( _  ._ ( _ ] }  .} [ _ ' | }  . .] / -.O.C c / ....O. . . . . .| ] X.O.O. .' } / ^ ^ ( ^ ^ | o.",
" .T ' X.} F m Y ]  .[ ! ( [ [ [ ` @.| ] ] _ '  .] ] '  .| | o.' / ] } o.#.G D  .$.$.$.O.' / T  .O. .} O.$.O.O. .o.| ] ^ ' ' / ' ",
"|  . .*.@.H a D L [ [ ( [ ' ' [ _ _ O. . .| [ _  .] [  .O. .] | [ Y ( ^ O.G D O.%.X.O.} ' O.} } O.X.| / ..O.O. . . . . .|  .| ' ",
"] ]  .X.@.C s ^ L T [ ( ' ( _ [ ] ' / / ' '  .| [ [ [ [ O. .[  .o.[ | ^ ' L b $.*.O.X. . . .| } ..X. .| |  .X.O. . . . . .o. . .",
"' ( ' |  .C a ( ( T ( ( ( T G J T ( T ^ / / Y ( _ | [ O.] ' ( ( ' E ( ( ( x h } $...| }  .} ^ ' T Y  . .| _  . . . .|  . .|  .] ",
"p q i h k y 3 a i 0 w j i q i p x C Z C Z C C p h f l x x p y i 0 s N x h 0 8 i h f h k h j k k C x k k k k x x x x x v C C x k ",
"B B H P I I P Z M 8 C _ ! m N m F H ' ^ ( ! P F D 2 h M N V S B y m N k m Z H H A 9 k H H S H Z Z F c k k M Z F Z = w v F H L L ",
" . . . . . .X.] ' 0 L  .=.+.[ ]  .O.%.;.-.-.*.*.[ j D ( I ( _ I ! ! Q ( ! ( ` ` ! i F ! { [ { _ ^ L E L ( ' ( _ ` 3 ]  . . .o.[ ",
"X.X.| ] ' ]  .] ( 7 L X.X.&.X.$.-.;.;.%.&.*.O.$.@.x J _ I ` ` ( ! I L ~ ( ( I [ ! p C L ( [  .[ ' ' ( ^ D ( [ ` [ 8  .|  .|  . .",
" .] ] ] _ T T ' ' - T O.@.X...../ X.X.X.O.O...$.$.x J { I ` _ ) ` ! ! ! ! ~ ( ( ~ i s G _ ( [ [ ` ! ' ] ' J '  .[ q  .[ o.| | o.",
" .] ' ' _ (  .] ' 0 Y $...} } R } $...$...O.O.X.' h l  ._ ( ( ( ( ( E _ ` ! ( _ W p F ^ ( ( ]  .{ [ _ _ _ ' T T _ 9 [ | [ |  . .",
" .o.| T ' (  .[ R w l | X.X.$.O.R } R ..$.%.$.$.| k z ] ` I ` ` ( ` ! E ! ! ^ ' ! p H _ | ( ( [ [ ' ! ' ] | ( ( _ & [  .| [ | | ",
" .o. .T T ] ' ( ( w L | $.$.&.O...} Y n / } / } ( M z ! ( I ( ( [ [ _ ( ( _ ( ( I p G ' ^ L T _ ' ( ! _ [ [ _ ] [ @ _ | ' ] | | ",
"X. .o.R ( ] ] ( ! 2 D Y Y } X.$.O.$.O.^ / | } } ] m k ! ` ` I ' [ [ ! ! _ ( ( ( ` i D [ ( ' ' ] ] ( H ' ( ( _ _ _ y ' _ [ ' o.o.",
" .] ' O.T T T ] ( 3 F [ (  .O.X.} O.O...R R R } [ m M L I T I [ [ _ ( ` ` ` ` ` L i M [ ] T ] [ [ ' _ I I ( I _ ( 2 [ ] [ | |  .",
"G J D L L D K J I q F ! ( ] ' I E ^ } ' ( ] / / T m j F D F M m D L Z G D G F F H y k L T L L L F M M Z C F _ T ! X D ] ' ^ T ^ ",
"2 q u 6 6 s q w a y y u a a s s a a B s a s p a m w w w m s s s y 2 2 9 6 q i q y q i i 1 w = + ; 3 q q q 2 p 9 1 = X 8 2 # O @ ",
"B Q ~ P P P ) ` ` ` ! ! A V S P ~ ! _ ~ ~ ! E W ~ [ Z j I I P P ~ ~ ! ~ P ! ` Q ! [ ` ( ! L A H P ! Q Q I S G L E ! a @ m A B k ",
"I ] ] ` ] ] T [ ' ' ' ^ H ! ( ] [ [ [ / _ o.O.{ R +.F C T @.+.+. . .[ [ [ '  .+.+. . .[ ! ( ! ( ] | [ [ _ ] [ ` [ _ Z 1 E ( H L ",
"I I T T { [ ] T ( ( ' ' ^ Y ] _ [ ^ K _ _ | @.@.o.{ C j T [ [ o.O. .[ [  .[ [ o.@. .] ! I ( ( [ ] ] ` [ [ o. .`  .' Z 2 L ( L L ",
"` T I ]  .] F D L [ [ [ ' ^ [ ( ( ' ' o.[ ' _ | o.R M m T +.[ R [ [ ' [ ] ] ]  .@.@.[ ! L ( ( ( [ ` ] [ ' ] ` _ [  .A 2 G ( L P ",
"I ' ] R o.J L T [  . .J Y v T ^ ( ( v L K ( | o.+.+.M m T [ +.[ [ _ [ [ [ [ ' [  . .o.( H ! ' [ ] [ ] ' _ _ [  . . .C y j z j L ",
"' ` I ] o.T J T o.[ T g l R _ T T I T I [ +. .+.X.+.C j R @.R [ ` [ ] ] ` ] ] '  .' ' ] I I ' I T R [ [ I ] [ [ [  .H 6 F K F T ",
"] T I '  .o.L K [ [ l l l D G F F I I R [  .+.o. .+.F j  . .[ R ' | [ [ ] [ T [ +.o.] ' ' ( ' [ ] ] ] [ ] ] ` ] [ R C 6 D T ` T ",
"I ` I T ] @.+.T T ] D l T L j M C L ( ( T [ | [ R [ F j o.@. .| X.| | ` [ o.' ( ' ' ` [ [ ' [ [  .[ ] [ ` I I ] L J m < T T I T ",
"C I ] I T  .[ [ [ T J l L T F L I I [ T ) | R ` [ I j p R  .@.@.&.&.&.| ( ' ` ` ` ` [ ` ` ` ] [  .` T ' [ ] ] I D z u : [ I T I ",
"I S I I H M m j K l M H C C D ` I I M M x F H I ~ I w 1 I [  . .T T F J ' ! ( ` ' I C F T [ [ ` I C m M T I I H D I > 1 ` C N S ",
"> o ; w * ; < ; o 1 2 q q u 1 : 6 o 1 f j 9 : w w 1 > 1 ; 3 3 w 2 o q 3 o 2 o 2 j 2 o , 2 j j < : $ ; . ; < , , q > , > ; $ o   ",
"V 2 K o.[ ] T L M U @.[ | [ T T +.w I &.o.+.[  .[ ` [ [ [ { ` R { q F [ ` ` ` ] ` ) ) ` ` ' ' ` ~ u C S C P S P T I I I A A P S ",
"P 3 K o.] ] J C H K J Y | O. .R R 2 T &.R [ o.X.[ o.o.o.X.X.&.X.` w F L I T T ` ` [ ( ! ( ` ( [ ] q C P H I I I [ I I P A P S V ",
"T 3 K o.R ` I I L [ R T R =.$.O.Y o B X.o.'  .| X.o. .@.@.X.X.&.+.9 ( T ` ] ' T T { [ ' ' [ ' [ T w C H H I I I ` I ~ ) S C N A ",
"H 1 J  .+.[ [ R T [ o.+.]  .| R L 4 p X.X. .[  .X.X.[ o.X.&.@.&.o.o `  .] ` [ [ T ' ` [ '  .[ ' I 9 M Z H S F H P I [ I S Z V H ",
"H 6 J  .R ` [ o.T  .o. .+.{ @.R ( 5 j o.@.' I [ T +.o. .X.o.@.X.] 2 D o.o.[ o.[ [ ` ' +.[ ( ' [ T 9 w Z D C m F H C I I A S I I ",
"Z > M [ +.@. .[ ]  .O.&.@.@.&.&.' u m [ o. .O.X. .[ R ] O.O.X.X.] j M  .[ ( [ ' ' I [ [ [ T I J T 8 q j Z k m m m M L I I P P T ",
"Z q L @.O.| +.@. . .O.$.o.X.&.&.` u m  .o. . . .] ] ] T O.$.&.X.[ p m [ [ [ ] ] [ [ [ R X. . .| T 1 p Z w A M B m N P I I P A I ",
"I p J  .X. .R @.$.o.@.&.X.....&.[ j D X.X.+. .+. .[ o. .| &.$.$.[ w M [ [ ] [ [ { T  .X. .X. .[ T w q w i I F w u N P I I I I I ",
"I a D Y R X.X.| R O.O.R ] T K T [ j D ' '  .&.@.+.' T T I R | ' ` w j L ` [ ` [ '  .@.X.[ [ T ( I 6 a N m H A m q V A I I I I I ",
"3 o 0 M j h j j j d j M C M m m M 8 o d w 2 o 8 9 9 u m j j j j m o 2 w 8 9 8 8 z D d d d 9 2 2 8 % o 4 u 6 a 4 % 6 3 6 q q 6 2 "
};
